<?xml version="1.0" encoding="utf-8"?>
<!-- Generator: Adobe Illustrator 28.2.0, SVG Export Plug-In . SVG Version: 6.00 Build 0)  -->
<svg version="1.1" id="Layer_1" xmlns="http://www.w3.org/2000/svg" xmlns:xlink="http://www.w3.org/1999/xlink" x="0px" y="0px"
	 viewBox="0 0 1280 1280" style="enable-background:new 0 0 1280 1280;" xml:space="preserve">
<style type="text/css">
	.st0{fill:#8CD211;}
	.st1{fill:#FDFDFB;}
	.st2{fill:#2E2E2E;}
	.st3{fill:#FCFCFC;}
	.st4{fill:#FDFDFD;}
</style>
<path class="st0" d="M648.92,29.93c35.39-0.74,77.85,5.13,119.27,16.77c101.91,28.63,186.15,84.53,252.31,167.22
	c33.67,42.07,59.33,88.65,77.06,139.68c10.33,29.75,18.03,60.11,22.65,91.14c5.72,38.41,7.26,76.89,1.38,115.69
	c-7.77,51.24-24.85,99.18-46.78,145.78c-37.08,78.76-85.76,150.13-138.48,218.98c-61.73,80.62-129.24,156.19-199.66,229.26
	c-30.35,31.49-61.16,62.5-92.46,93.04c-3.44,3.35-5.22,3.64-8.79,0.18c-62.87-60.9-123-124.42-181.46-189.55
	c-60.79-67.74-117.25-138.89-169.08-213.72c-35.47-51.21-66.19-105.1-91.1-162.21c-12.26-28.11-22.38-57.07-29.16-87.01
	c-8.26-36.42-11.66-73.24-9.12-110.71c2.07-30.61,6.64-60.74,14.27-90.33c16.15-62.67,43.6-119.93,82.98-171.53
	c40.83-53.5,90.32-96.82,148.81-129.99c30.71-17.42,62.88-31.27,96.69-41.64C544.86,36.68,592.44,29.83,648.92,29.93z M217.03,545.6
	c3.28,0,5.39,0,7.5,0c31.28-0.01,62.56,0.17,93.83-0.19c6.51-0.07,8.46,1.31,8.45,8.21c-0.26,98.68-0.15,197.35-0.3,296.03
	c-0.01,5.65,0.92,7.9,7.45,7.89c203.74-0.2,407.49-0.21,611.23,0.01c7,0.01,8.25-2.07,8.24-8.52c-0.22-98.9-0.13-197.8-0.32-296.69
	c-0.01-5.56,1.54-6.98,7-6.93c31.94,0.27,63.88,0.16,95.81,0.12c1.63,0,3.95,1,4.77-0.89c0.68-1.55-0.9-3.1-1.85-4.58
	c-12.44-19.19-24.86-38.41-37.19-57.68c-32.3-50.49-64.45-101.08-96.9-151.47c-9.27-14.4-15.66-31.59-34.01-37.99
	c-2.03-0.71-3.71-2.45-5.75-3.06c-5.57-1.66-6.3-5.54-6.29-10.69c0.11-30.84-0.16-61.67-0.03-92.51c0.02-5.06-1.15-6.81-6.58-6.78
	c-41.19,0.24-82.38,0.22-123.57,0.04c-5.13-0.02-7.07,1.25-6.79,6.64c0.43,8.41,0.12,16.86,0.12,25.91
	c-1.88-0.72-2.71-0.95-3.45-1.35c-30.92-16.63-61.89-33.17-92.66-50.07c-4.03-2.21-7.05-2.36-10.88-0.29
	c-81.34,43.94-162.75,87.76-244.01,131.85c-8.05,4.37-17.14,7.27-22.38,16.26c-8.78,15.07-18.34,29.69-27.78,44.36
	c-31.26,48.6-62.62,97.12-93.91,145.7C237.03,514.1,227.4,529.34,217.03,545.6z"/>
<path class="st1" d="M217.03,545.6c10.37-16.26,19.99-31.51,29.76-46.66c31.28-48.58,62.65-97.1,93.91-145.7
	c9.44-14.67,19-29.29,27.78-44.36c5.23-8.99,14.33-11.89,22.38-16.26c81.26-44.09,162.67-87.9,244.01-131.85
	c3.82-2.06,6.84-1.92,10.88,0.29c30.77,16.9,61.74,33.44,92.66,50.07c0.74,0.4,1.57,0.62,3.45,1.35c0-9.05,0.32-17.5-0.12-25.91
	c-0.28-5.39,1.66-6.66,6.79-6.64c41.19,0.18,82.38,0.2,123.57-0.04c5.43-0.03,6.6,1.71,6.58,6.78c-0.13,30.84,0.14,61.67,0.03,92.51
	c-0.02,5.14,0.72,9.02,6.29,10.69c2.04,0.61,3.72,2.36,5.75,3.06c18.35,6.4,24.74,23.59,34.01,37.99
	c32.45,50.39,64.6,100.98,96.9,151.47c12.33,19.27,24.75,38.48,37.19,57.68c0.96,1.47,2.53,3.03,1.85,4.58
	c-0.82,1.89-3.14,0.89-4.77,0.89c-31.94,0.04-63.88,0.14-95.81-0.12c-5.46-0.05-7.01,1.38-7,6.93c0.19,98.9,0.11,197.8,0.32,296.69
	c0.01,6.44-1.24,8.53-8.24,8.52c-203.74-0.22-407.49-0.21-611.23-0.01c-6.53,0.01-7.45-2.24-7.45-7.89
	c0.15-98.68,0.04-197.36,0.3-296.03c0.02-6.9-1.94-8.29-8.45-8.21c-31.27,0.36-62.55,0.18-93.83,0.19
	C222.42,545.6,220.31,545.6,217.03,545.6z M639.18,510.25c0,0.01,0,0.03,0,0.04c116.96,0,233.92,0.01,350.87-0.05
	c2.07,0,4.83,1.16,6.11-0.95c1.42-2.34-1.44-3.93-2.5-5.59c-35.27-55.34-70.69-110.59-106.02-165.89
	c-3.46-5.41-7.41-9.74-13.56-12.56c-8.89-4.08-17.05-9.71-25.85-14.01c-3.89-1.9-4.82-4.18-4.81-8.12
	c0.13-27.31-0.03-54.62,0.15-81.94c0.03-4.43-0.89-6.08-5.72-6.01c-18.28,0.29-36.56,0.29-54.84-0.01c-4.9-0.08-5.76,1.68-5.69,6.07
	c0.24,14.97-0.03,29.96,0.17,44.93c0.06,4.89-0.67,6.28-5.64,3.57c-42.32-23.07-84.77-45.9-127.11-68.93
	c-3.34-1.82-5.85-1.62-9.13,0.15c-77.7,42-155.46,83.88-233.2,125.81c-3.09,1.67-5.43,4.01-7.4,7.09
	c-35.64,55.9-71.41,111.72-107.11,167.59c-1.6,2.5-5.41,5.16-4.1,7.59c1.59,2.93,5.99,1.15,9.11,1.15
	C408.35,510.27,523.76,510.25,639.18,510.25z M640.15,544.99c0-0.01,0-0.02,0-0.03c-90.31,0-180.62,0.05-270.93-0.13
	c-5.68-0.01-7.29,1.17-7.27,7.15c0.24,87.67,0.26,175.33,0.02,263c-0.02,6.2,1.93,7.03,7.4,7.01c63.22-0.19,126.43-0.21,189.65,0.03
	c6.33,0.02,8.45-1.02,8.38-8.03c-0.4-42.73-0.48-85.46-0.13-128.19c0.37-45.96,43.1-79.79,88.02-70.18
	c32.76,7.01,57.09,36.82,57.28,70.89c0.24,42.73,0.18,85.46-0.05,128.19c-0.03,5.57,0.93,7.37,7.05,7.35
	c63.66-0.27,127.31-0.24,190.97-0.01c5.74,0.02,7.26-1.22,7.25-7.14c-0.21-87.45-0.21-174.89,0.06-262.34
	c0.02-6.68-2-7.72-8.08-7.71C819.89,545.05,730.02,544.99,640.15,544.99z"/>
<path class="st2" d="M639.18,510.25c-115.42,0-230.83,0.01-346.25-0.07c-3.12,0-7.53,1.78-9.11-1.15c-1.32-2.43,2.5-5.08,4.1-7.59
	c35.7-55.86,71.47-111.68,107.11-167.59c1.96-3.08,4.3-5.42,7.4-7.09c77.74-41.92,155.5-83.81,233.2-125.81
	c3.28-1.77,5.78-1.97,9.13-0.15c42.34,23.03,84.79,45.87,127.11,68.93c4.98,2.71,5.71,1.32,5.64-3.57
	c-0.19-14.98,0.08-29.96-0.17-44.93c-0.07-4.38,0.79-6.14,5.69-6.07c18.28,0.3,36.56,0.29,54.84,0.01c4.83-0.08,5.75,1.57,5.72,6.01
	c-0.19,27.31-0.02,54.62-0.15,81.94c-0.02,3.94,0.91,6.22,4.81,8.12c8.8,4.3,16.96,9.93,25.85,14.01
	c6.15,2.82,10.1,7.15,13.56,12.56c35.33,55.3,70.75,110.54,106.02,165.89c1.06,1.67,3.92,3.25,2.5,5.59
	c-1.28,2.11-4.04,0.95-6.11,0.95c-116.96,0.05-233.92,0.05-350.87,0.05C639.18,510.28,639.18,510.27,639.18,510.25z"/>
<path class="st2" d="M640.15,544.99c89.87,0,179.74,0.06,269.61-0.14c6.08-0.01,8.11,1.03,8.08,7.71
	c-0.27,87.44-0.27,174.89-0.06,262.34c0.01,5.92-1.5,7.16-7.25,7.14c-63.66-0.23-127.31-0.25-190.97,0.01
	c-6.12,0.03-7.08-1.78-7.05-7.35c0.23-42.73,0.29-85.46,0.05-128.19c-0.19-34.07-24.52-63.88-57.28-70.89
	c-44.92-9.62-87.64,24.22-88.02,70.18c-0.35,42.73-0.27,85.46,0.13,128.19c0.07,7.01-2.05,8.06-8.38,8.03
	c-63.22-0.24-126.43-0.21-189.65-0.03c-5.47,0.02-7.41-0.81-7.4-7.01c0.24-87.67,0.22-175.33-0.02-263
	c-0.02-5.98,1.59-7.16,7.27-7.15c90.31,0.18,180.62,0.13,270.93,0.13C640.15,544.97,640.15,544.98,640.15,544.99z M422.11,656.1
	c0.03,0,0.05,0,0.08,0c0,11.87,0.12,23.75-0.07,35.62c-0.06,3.77,0.66,5.49,4.98,5.45c23.3-0.23,46.61-0.27,69.92-0.14
	c4.08,0.02,5.23-1.21,5.2-5.25c-0.17-23.75-0.16-47.49,0-71.24c0.03-3.94-0.96-5.31-5.11-5.28c-23.31,0.18-46.61,0.17-69.92-0.02
	c-4.1-0.03-5.25,1.25-5.17,5.24C422.25,632.35,422.11,644.23,422.11,656.1z M857.91,656.23c0-11.66-0.19-23.32,0.1-34.97
	c0.11-4.37-0.72-6.07-5.64-6.02c-23.09,0.26-46.18,0.19-69.27-0.02c-4.25-0.04-5.66,1.01-5.61,5.46
	c0.24,23.53,0.21,47.06,0.09,70.59c-0.02,4.01,0.64,5.85,5.34,5.8c23.31-0.24,46.62-0.19,69.93,0c4.09,0.03,5.22-1.23,5.14-5.23
	C857.74,679.99,857.9,668.11,857.91,656.23z"/>
<path class="st3" d="M422.11,656.1c0-11.87,0.15-23.75-0.08-35.62c-0.08-4,1.07-5.28,5.17-5.24c23.31,0.19,46.61,0.2,69.92,0.02
	c4.15-0.03,5.14,1.34,5.11,5.28c-0.16,23.75-0.17,47.49,0,71.24c0.03,4.04-1.12,5.28-5.2,5.25c-23.31-0.13-46.61-0.09-69.92,0.14
	c-4.32,0.04-5.04-1.68-4.98-5.45c0.19-11.87,0.07-23.75,0.07-35.62C422.16,656.1,422.13,656.1,422.11,656.1z"/>
<path class="st4" d="M857.9,656.23c-0.01,11.88-0.16,23.76,0.08,35.63c0.08,4-1.05,5.26-5.14,5.23c-23.31-0.19-46.62-0.24-69.93,0
	c-4.71,0.05-5.36-1.8-5.34-5.8c0.12-23.53,0.15-47.06-0.09-70.59c-0.04-4.46,1.36-5.5,5.61-5.46c23.09,0.21,46.19,0.28,69.27,0.02
	c4.91-0.06,5.74,1.65,5.64,6.02C857.72,632.92,857.91,644.58,857.9,656.23z"/>
</svg>
